<?xml version="1.0" standalone="no"?>
<!DOCTYPE svg PUBLIC "-//W3C//DTD SVG 20010904//EN"
 "http://www.w3.org/TR/2001/REC-SVG-20010904/DTD/svg10.dtd">
<svg version="1.0" xmlns="http://www.w3.org/2000/svg"
 width="700.000000pt" height="700.000000pt" viewBox="0 0 700.000000 700.000000"
 preserveAspectRatio="xMidYMid meet">
<metadata>
Created by potrace 1.11, written by Peter Selinger 2001-2013
</metadata>
<g transform="translate(0.000000,700.000000) scale(0.100000,-0.100000)"
fill="#000000" stroke="none">
<path d="M0 3500 l0 -3500 3500 0 3500 0 0 3500 0 3500 -3500 0 -3500 0 0
-3500z m3619 2867 c53 -35 83 -94 84 -166 2 -72 -25 -124 -86 -171 -25 -19
-200 -126 -389 -237 -189 -111 -707 -416 -1153 -678 -445 -263 -821 -482 -835
-487 -118 -48 -232 -8 -281 97 -37 80 -18 176 48 236 15 15 228 145 473 289
1307 772 1909 1124 1940 1136 57 22 150 13 199 -19z m2336 -2257 c67 -32 105
-100 105 -187 0 -60 -20 -103 -68 -144 -22 -19 -208 -133 -414 -254 -205 -121
-719 -424 -1143 -673 -423 -250 -790 -464 -815 -477 -99 -50 -184 -40 -256 30
-51 49 -70 106 -55 163 12 44 64 121 102 151 46 36 2227 1326 2339 1383 68 35
144 38 205 8z m-4714 -68 c43 -22 59 -38 81 -81 76 -145 -22 -311 -182 -311
-126 0 -210 84 -210 210 0 166 161 261 311 182z m4692 -826 c57 -23 137 -134
137 -189 0 -35 -47 -119 -85 -150 -18 -15 -356 -218 -752 -450 -395 -233 -896
-528 -1113 -657 -217 -128 -429 -251 -470 -272 -170 -89 -300 -49 -332 103
-14 72 2 129 50 179 25 26 429 269 1197 722 638 376 1183 693 1210 705 58 26
112 29 158 9z m-4708 -45 c85 -38 132 -123 122 -219 -11 -100 -79 -169 -179
-179 -148 -15 -247 80 -236 226 10 142 162 232 293 172z m4703 -806 c20 -9 47
-26 60 -38 35 -32 82 -121 82 -153 0 -44 -38 -111 -83 -148 -23 -18 -422 -258
-887 -532 -1305 -769 -1463 -861 -1514 -878 -58 -20 -138 -21 -175 -1 -122 62
-133 253 -19 338 33 24 2291 1358 2358 1392 73 38 121 43 178 20z m-4724 -67
c24 -7 59 -30 83 -54 155 -155 -7 -419 -215 -350 -180 60 -191 316 -17 397 47
22 92 24 149 7z"/>
</g>
</svg>
