<svg viewBox="0 0 84.01 65.65" xmlns="http://www.w3.org/2000/svg" xmlns:xlink="http://www.w3.org/1999/xlink"><linearGradient id="a" gradientUnits="userSpaceOnUse" x1="4.47" x2="64.52" y1="30.12" y2="30.12"><stop offset="0" stop-color="#35aa9c"/><stop offset="1" stop-color="#5db567"/></linearGradient><linearGradient id="b" x1="0" x2="60.05" xlink:href="#a" y1="35.55" y2="35.55"/><path d="m57.46 23h-15.9v-15.89a7.07 7.07 0 1 0 -14.13 0v15.89h-15.9a7.09 7.09 0 0 0 0 14.17h15.9v15.97a7.07 7.07 0 1 0 14.13 0v-15.93h15.9a7.09 7.09 0 0 0 0-14.17z" fill="url(#a)" opacity=".3"/><path d="m58.52 0h-22.3a12 12 0 0 0 -1.47 0 7.19 7.19 0 0 1 6.84 7.09v15.91h15.9a7.09 7.09 0 0 1 0 14.17h-15.9v15.97a7.07 7.07 0 0 1 -6 7 1.81 1.81 0 0 0 .61.1h22.3c11.92-.01 25.5-5.46 25.5-30.24s-13.56-30-25.48-30z" fill="#1c1e40"/><path d="m53 28.47h-15.91v-15.93a7.07 7.07 0 1 0 -14.13 0v15.93h-15.9a7.09 7.09 0 0 0 0 14.17h15.94v15.93a7.07 7.07 0 1 0 14.13 0v-15.93h15.87a7.09 7.09 0 0 0 0-14.17z" fill="url(#b)"/></svg>