<svg enable-background="new 0 0 512 512" viewBox="0 0 512 512" xmlns="http://www.w3.org/2000/svg"><path d="m478.609 166.957v-66.783h-33.392v-33.391h-33.391v-33.392h-66.783v-33.391h-178.086v33.391h-66.783v33.392h-33.391v33.391h-33.392v66.783h-33.391v178.086h33.391v66.783h33.392v33.391h33.391v33.392h66.783v33.391h178.086v-33.391h66.783v-33.392h33.391v-33.391h33.392v-66.783h33.391v-178.086z" fill="#ffde46"/><path d="m166.957 322.783h33.391v33.391h-33.391z"/><path d="m311.652 267.13h33.391v89.043h-33.391z"/><path d="m166.957 155.826h33.391v77.913h-33.391z"/><path d="m200.348 233.739h111.304v33.391h-111.304z"/><path d="m267.13 122.435v-44.522h-33.391v44.522h-33.391v33.391h111.304v-33.391z"/><path d="m311.652 155.826h33.391v33.391h-33.391z"/><path d="m200.348 356.174v33.391h33.391v44.522h33.391v-44.522h44.522v-33.391z"/><g fill="#ccab13"><path d="m66.783 66.783h33.391v33.391h-33.391z"/><path d="m411.826 33.391h-66.783v-33.391h-178.086v33.391h-66.783v33.392h66.783v-33.392h178.086v33.392h66.783v33.391h33.391v-33.391h-33.391z"/><path d="m445.217 100.174h33.391v66.783h-33.391z"/><path d="m478.609 166.957h33.391v178.087h-33.391z"/><path d="m445.217 345.043h33.391v66.783h-33.391z"/><path d="m33.391 166.957h-33.391v178.086h33.391v66.783h33.392v33.391h33.391v-33.391h-33.391v-66.783h-33.392v-178.086h33.392v-66.783h-33.392z"/><path d="m166.957 478.609v33.391h178.086v-33.391h66.783v-33.392h-66.783v33.392h-178.086v-33.392h-66.783v33.392z"/><path d="m411.826 411.826h33.391v33.391h-33.391z"/></g></svg>