<svg xmlns="http://www.w3.org/2000/svg" viewBox="0 0 253.44 286.08"><defs><style>.cls-1{fill:#d41100;}.cls-2{fill:#027f4f;}.cls-3{fill:#36c6f1;}.cls-4{fill:#fe4200;}.cls-5{fill:#fe7b00;}.cls-6{fill:#f9a33d;}.cls-7{fill:#feb800;}</style></defs><title>Layer 1</title><g id="Layer_2" data-name="Layer 2"><g id="Layer_1-2" data-name="Layer 1"><g id="GG7qqg.tif"><path class="cls-1" d="M218.19,55.25c.22,4.71-2.77,7.51-6.75,9.85-34.56,20.32-69,40.79-103.69,61-4.1,2.38-5.23,5-5.21,9.46.15,38.8.09,77.61.09,116.42,0,1.49.07,3-.06,4.49-.58,6.26-4.95,10.38-10.75,10.21s-10-4.45-10-10.83q-.07-66-.06-131.91c0-4.43,1.69-7.67,5.48-9.91q57.39-33.84,114.81-67.64C209.73,41.85,218.14,46.51,218.19,55.25Z"/><path class="cls-2" d="M41.23,167.05c0-21.16.13-42.31-.09-63.46-.06-6,2.11-9.94,7.29-13q55.94-32.79,111.7-65.84c4.47-2.65,8.91-3.78,13.44-.31,6.3,4.84,5.34,13.16-2.22,17.67-16.56,9.89-33.19,19.64-49.8,29.43-18.61,11-37.18,22-55.88,32.85-3,1.76-4,3.72-4,7.12q.16,60.21.06,120.43c0,6.36-3,10.15-8.48,11-5.32.85-9.76-1.59-11.37-6.6a19.84,19.84,0,0,1-.61-5.88Q41.21,198.77,41.23,167.05Z"/><path class="cls-3" d="M136.88,9.92c.24,5.25-3,8.07-7.08,10.49Q77.55,51.12,25.36,81.93c-2.86,1.69-5.69,3.45-8.6,5C10.87,90.19,5,88.85,2,83.7S.54,72.62,6.26,69.21Q38.63,50,71.12,30.92C87.6,21.21,104,11.43,120.57,1.84,128.4-2.69,136.75,1.58,136.88,9.92Z"/><path class="cls-4" d="M129,155.83c-6.21.11-10.31-2.69-11.57-6.78-1.53-5,.13-9.55,4.91-12.43,10.54-6.36,21.18-12.55,31.79-18.8l80.39-47.39c1.14-.67,2.28-1.37,3.47-2,5.4-2.65,11.06-1.1,13.86,3.78a10.16,10.16,0,0,1-3.62,14c-11.09,6.75-22.31,13.25-33.49,19.85q-39.75,23.45-79.53,46.87A61,61,0,0,1,129,155.83Z"/><path class="cls-5" d="M252.93,122.11c.23,4.63-2.69,7.32-6.5,9.55q-35.3,20.73-70.53,41.54l-42.56,25.11c-4.06,2.39-8.24,2.7-12.22,0-3.52-2.4-5.09-6.27-3.74-10.06a15.94,15.94,0,0,1,6.14-7.8c28-16.78,56.1-33.26,84.19-49.82,9.75-5.75,19.43-11.6,29.26-17.2C244.82,109,253,113.41,252.93,122.11Z"/><path class="cls-6" d="M253.44,165.47c-.45,5.94-4.15,8.52-8.12,10.86Q212,196,178.67,215.57c-14.62,8.62-29.14,17.38-43.85,25.83-2.74,1.57-6.21,2.84-9.26,2.66-4.27-.24-7.27-3.37-8-7.75s.69-8.17,4.82-10.61q25.8-15.18,51.56-30.42,31.17-18.39,62.34-36.78c4.36-2.58,8.87-3.48,12.89.14C251.09,160.37,252.05,163.16,253.44,165.47Z"/><path class="cls-3" d="M0,125c.1-6,4.47-10.13,10.6-10.05A10,10,0,0,1,20.87,125.4,10.33,10.33,0,0,1,10,135.85,10.21,10.21,0,0,1,0,125Z"/><path class="cls-3" d="M20.87,212.18a10.53,10.53,0,0,1-10.29,10.61A10.45,10.45,0,0,1,0,212.47a10.35,10.35,0,0,1,10.53-10.84A10.39,10.39,0,0,1,20.87,212.18Z"/><path class="cls-3" d="M20.87,168.71A9.88,9.88,0,0,1,10.6,179.06C4.44,179.1.11,175,0,169a10.33,10.33,0,0,1,10.53-10.78A10.26,10.26,0,0,1,20.87,168.71Z"/><path class="cls-7" d="M253.44,207.47c-.45,5.94-4.15,8.52-8.12,10.86Q212,238,178.67,257.57c-14.62,8.62-29.14,17.38-43.85,25.83-2.74,1.57-6.21,2.84-9.26,2.66-4.27-.24-7.27-3.37-8-7.75s.69-8.17,4.82-10.61q25.8-15.18,51.56-30.42,31.17-18.39,62.34-36.78c4.36-2.58,8.87-3.48,12.89.14C251.09,202.37,252.05,205.16,253.44,207.47Z"/></g></g></g></svg>