<svg viewBox="0 0 1000 1000" xmlns="http://www.w3.org/2000/svg"><g class="blokjes"><path d="m764.46 588.16h88.15v88.15h-88.15z" fill="#025966"></path><path d="m147.38 147.39h88.15v88.15h-88.15z" fill="#045a66"></path><path d="m147.38 235.54h88.15v88.15h-88.15z" fill="#066263"></path><path d="m147.38 323.69h88.15v88.15h-88.15z" fill="#046a5e"></path><path d="m147.38 411.85h88.15v88.15h-88.15z" fill="#04705f"></path><path d="m147.38 500h88.15v88.15h-88.15z" fill="#057755"></path><path d="m147.38 588.16h88.15v88.15h-88.15z" fill="#027f4f"></path><path d="m676.31 147.39h88.15v88.15h-88.15z" fill="#243466"></path><path d="m588.15 147.39h88.15v88.15h-88.15z" fill="#233a66"></path><path d="m500 147.39h88.15v88.15h-88.15z" fill="#154166"></path><path d="m411.85 147.39h88.15v88.15h-88.15z" fill="#094867"></path><path d="m323.69 147.39h88.15v88.15h-88.15z" fill="#084f66"></path><path d="m235.54 147.39h88.15v88.15h-88.15z" fill="#075567"></path><path d="m764.46 147.39h88.15v88.15h-88.15z" fill="#2c2e65"></path><path d="m323.69 235.54h88.15v88.15h-88.15z" fill="#045768"></path><path d="m411.84 235.54h88.16v88.15h-88.16z" fill="#095067"></path><path d="m500 235.54h88.15v88.15h-88.15z" fill="#05496a"></path><path d="m588.16 235.54h88.15v88.15h-88.15z" fill="#144367"></path><path d="m676.31 235.54h88.15v88.15h-88.15z" fill="#1d3d66"></path><path d="m764.46 235.54h88.15v88.15h-88.15z" fill="#213666"></path><path d="m235.54 235.54h88.15v88.15h-88.15z" fill="#065d68"></path><path d="m676.31 323.69h88.15v88.15h-88.15z" fill="#0c456a"></path><path d="m588.16 323.69h88.15v88.15h-88.15z" fill="#054e68"></path><path d="m500 323.69h88.15v88.15h-88.15z" fill="#075567"></path><path d="m411.84 323.69h88.16v88.15h-88.16z" fill="#025966"></path><path d="m323.69 323.69h88.15v88.15h-88.15z" fill="#045f66"></path><path d="m235.54 323.69h88.15v88.15h-88.15z" fill="#056364"></path><path d="m764.46 323.69h88.15v88.15h-88.15z" fill="#194066"></path><path d="m323.69 411.85h88.15v88.15h-88.15z" fill="#076663"></path><path d="m411.84 411.85h88.16v88.15h-88.16z" fill="#046064"></path><path d="m500 411.85h88.15v88.15h-88.15z" fill="#045864"></path><path d="m588.16 411.85h88.15v88.15h-88.15z" fill="#075567"></path><path d="m676.31 411.85h88.15v88.15h-88.15z" fill="#084f66"></path><path d="m764.46 411.85h88.15v88.15h-88.15z" fill="#0a476a"></path><path d="m235.54 411.85h88.15v88.15h-88.15z" fill="#016c60"></path><path d="m323.69 500h88.15v88.15h-88.15z" fill="#026e5d"></path><path d="m411.84 500h88.16v88.15h-88.16z" fill="#046861"></path><path d="m500 500h88.15v88.15h-88.15z" fill="#066263"></path><path d="m588.16 500h88.15v88.15h-88.15z" fill="#045a66"></path><path d="m676.31 500h88.15v88.15h-88.15z" fill="#075567"></path><path d="m764.46 500h88.15v88.15h-88.15z" fill="#084f66"></path><path d="m235.54 500h88.15v88.15h-88.15z" fill="#027358"></path><path d="m676.31 588.16h88.15v88.15h-88.15z" fill="#065d68"></path><path d="m588.16 588.16h88.15v88.15h-88.15z" fill="#056364"></path><path d="m500 588.16h88.15v88.15h-88.15z" fill="#00695e"></path><path d="m411.84 588.16h88.16v88.15h-88.16z" fill="#026e5d"></path><path d="m323.69 588.16h88.15v88.15h-88.15z" fill="#027358"></path><path d="m235.54 588.16h88.15v88.15h-88.15z" fill="#007a54"></path></g></svg>